Patient4_TMGait_0pt8_01_right_16_GRF.mot
version=1
nRows=32
nColumns=19
inDegrees=no
endheader
time	F1x	F1y	F1z	M1x	M1y	M1z	F2x	F2y	F2z	M2x	M2y	M2z	EC1x	EC1y	EC1z	EC2x	EC2y	EC2z
17.72	-20.513	716.6623	70.7783	-253.5418	-80.933	835.1008	0.79864	6.2742	8.0454	-1.5462	-1.9443	7.7682	-0.0592	0.0182	-0.0073	-0.0462	0.0165	0.9585
17.7313	-15.8665	710.7213	65.4634	-250.8539	-74.5868	823.581	0.24586	4.8661	5.2164	-0.71561	-1.0057	6.1351	-0.0592	0.0182	-0.0073	-0.0462	0.0165	0.9585
17.7426	-11.2647	705.2296	60.7096	-248.3643	-68.536	812.0531	-0.15634	3.7128	2.8927	-0.025558	-0.27476	4.7807	-0.0592	0.0182	-0.0073	-0.0462	0.0165	0.9585
17.7539	-6.9182	700.9706	56.7847	-246.3668	-63.1102	801.6077	-0.40949	2.8963	1.177	0.5042	0.23159	3.8034	-0.0592	0.0182	-0.0073	-0.0462	0.0165	0.9585
17.7651	-2.9629	698.4853	53.7998	-245.0404	-58.5039	793.0347	-0.56513	2.3935	0.025426	0.88006	0.55427	3.1883	-0.0592	0.0182	-0.0073	-0.0462	0.0165	0.9585
17.7764	0.5944	697.9907	51.7038	-244.4351	-54.7304	786.6713	-0.65023	2.1517	-0.66154	1.1297	0.73656	2.871	-0.0592	0.0182	-0.0073	-0.0462	0.0165	0.9585
17.7877	3.7743	699.391	50.4056	-244.4794	-51.7507	782.4896	-0.71013	2.0637	-1.0168	1.2733	0.8409	2.7282	-0.0592	0.0182	-0.0073	-0.0462	0.0165	0.9585
17.799	6.6716	702.342	49.8054	-245.0163	-49.4918	780.1468	-0.77193	2.0345	-1.15	1.3295	0.90506	2.6476	-0.0592	0.0182	-0.0073	-0.0462	0.0165	0.9585
17.8103	9.3781	706.3517	49.803	-245.8411	-47.8659	779.1144	-0.8551	1.9715	-1.1668	1.3049	0.97212	2.5244	-0.0592	0.0182	-0.0073	-0.0462	0.0165	0.9585
17.8216	12.0176	710.8895	50.3298	-246.7435	-46.7975	778.7967	-0.977	1.7674	-1.1308	1.189	1.063	2.2247	-0.0592	0.0182	-0.0073	-0.0462	0.0165	0.9585
17.8329	14.6905	715.4968	51.3003	-247.5533	-46.195	778.6732	-1.1287	1.3145	-1.0999	0.95553	1.2005	1.5947	-0.0592	0.0182	-0.0073	-0.0462	0.0165	0.9585
17.8441	17.486	719.8729	52.6418	-248.1714	-45.9722	778.3914	-1.3135	0.50976	-1.0929	0.5685	1.3761	0.50336	-0.0592	0.0182	-0.0073	-0.0462	0.0165	0.9585
17.8554	20.4658	723.9484	54.2565	-248.5919	-46.0175	777.8369	-1.4964	-0.74172	-1.1165	-0.011033	1.5679	-1.1678	-0.0592	0.0182	-0.0073	-0.0462	0.0165	0.9585
17.8667	23.6773	727.8992	56.0458	-248.9063	-46.2122	777.1443	-1.6406	-2.4941	-1.1551	-0.8078	1.737	-3.4718	-0.0592	0.0182	-0.0073	-0.0462	0.0165	0.9585
17.878	27.147	732.09	57.8848	-249.2806	-46.4147	776.6446	-1.6552	-4.7349	-1.1768	-1.815	1.8085	-6.396	-0.0592	0.0182	-0.0073	-0.0462	0.0165	0.9585
17.8893	30.8924	736.9511	59.6419	-249.9041	-46.4717	776.723	-1.4463	-7.2926	-1.1395	-2.9597	1.6824	-9.71	-0.0592	0.0182	-0.0073	-0.0462	0.0165	0.9585
17.9006	34.9016	742.7552	61.222	-250.902	-46.2745	777.6143	-0.85341	-9.7913	-0.97749	-4.0717	1.2125	-12.9331	-0.0592	0.0182	-0.0073	-0.0462	0.0165	0.9585
17.9119	39.1469	749.4572	62.585	-252.2763	-45.7772	779.2416	0.26097	-11.529	-0.61916	-4.8396	0.24557	-15.1559	-0.0592	0.0182	-0.0073	-0.0462	0.0165	0.9585
17.9231	43.5921	756.5958	63.7757	-253.876	-45.0256	781.1267	2.0799	-11.4348	0.024012	-4.7824	-1.3993	-14.9925	-0.0592	0.0182	-0.0073	-0.0462	0.0165	0.9585
17.9344	48.2021	763.358	64.8477	-255.4225	-44.0758	782.4664	4.686	-7.9468	1.0342	-3.2111	-3.8619	-10.3998	-0.0592	0.0182	-0.0073	-0.0462	0.0165	0.9585
17.9457	52.9627	768.6428	65.8228	-256.5376	-42.9589	782.219	8.1044	0.93335	2.4867	0.75943	-7.2235	1.2123	-0.0592	0.0182	-0.0073	-0.0462	0.0165	0.9585
17.957	57.855	771.1875	66.6441	-256.7903	-41.6363	779.1973	12.0997	17.5457	4.3844	8.1555	-11.3674	22.9133	-0.0592	0.0182	-0.0073	-0.0462	0.0165	0.9585
17.9683	62.8579	769.604	67.1461	-255.7201	-39.9812	772.1212	16.1597	44.178	6.6242	19.9799	-15.9019	57.6886	-0.0592	0.0182	-0.0073	-0.0462	0.0165	0.9585
17.9796	67.8752	762.4048	67.0907	-252.8447	-37.8247	759.6533	19.2389	82.5164	8.9194	36.9516	-19.9778	107.761	-0.0592	0.0182	-0.0073	-0.0462	0.0165	0.9585
17.9909	72.6999	748.0315	66.1481	-247.67	-34.9511	740.4076	19.7056	132.7441	10.8153	59.1168	-22.2821	173.3681	-0.0592	0.0182	-0.0073	-0.0462	0.0165	0.9585
18.0021	76.9532	724.9294	64.0256	-239.7064	-31.24	713.0455	15.7064	192.655	11.7032	85.449	-21.2088	251.6538	-0.0592	0.0182	-0.0073	-0.0462	0.0165	0.9585
18.0134	80.0896	691.7495	60.4793	-228.5283	-26.672	676.4453	6.5822	257.1757	10.6029	113.6443	-15.263	335.973	-0.0592	0.0182	-0.0073	-0.0462	0.0165	0.9585
18.0247	81.4473	647.6308	55.4691	-213.8575	-21.4565	629.9493	-6.0394	319.424	6.5178	140.6591	-4.0835	417.1885	-0.0592	0.0182	-0.0073	-0.0462	0.0165	0.9585
18.036	80.3836	592.6348	49.1752	-195.698	-15.9954	573.7375	-19.7139	374.9316	-0.27266	164.5482	10.8111	489.1187	-0.0592	0.0182	-0.0073	-0.0462	0.0165	0.9585
18.0473	76.4057	528.054	42.0037	-174.4342	-10.83	509.139	-32.8622	423.7981	-8.5272	185.353	27.1644	551.5951	-0.0592	0.0182	-0.0073	-0.0462	0.0165	0.9585
18.0586	69.3718	456.3758	34.5599	-150.8381	-6.5507	438.546	-44.3957	468.6122	-17.2158	204.2341	43.2176	607.8079	-0.0592	0.0182	-0.0073	-0.0462	0.0165	0.9585
18.0699	59.5664	381.1221	27.4112	-126.0308	-3.5561	365.2954	-53.8866	512.421	-25.4099	222.5301	57.6346	661.7713	-0.0592	0.0182	-0.0073	-0.0462	0.0165	0.9585
